<svg aria-hidden="true" style="position: absolute; width: 0; height: 0; overflow: hidden;" version="1.1" xmlns="http://www.w3.org/2000/svg" xmlns:xlink="http://www.w3.org/1999/xlink">
<defs>
<symbol id="icon-placeholder" viewBox="0 0 32 32">
<path d="M16 0c-6.72 0-12.188 5.468-12.188 12.188 0 2.659 0.84 5.186 2.431 7.306l9.005 12.128c0.023 0.029 0.057 0.041 0.082 0.067 0.45 0.482 1.099 0.361 1.42-0.067 2.593-3.46 7.346-9.922 9.174-12.359 0 0 0.001-0.002 0.001-0.003l0.011-0.015c1.473-2.069 2.251-4.509 2.251-7.057 0-6.72-5.468-12.188-12.188-12.188zM16 18.762c-3.618 0-6.575-2.957-6.575-6.575s2.957-6.575 6.575-6.575 6.575 2.957 6.575 6.575-2.957 6.575-6.575 6.575z"></path>
</symbol>
</defs>
</svg>
